<?xml version="1.0" encoding="UTF-8"?>
<!DOCTYPE svg PUBLIC "-//W3C//DTD SVG 1.1//EN" "http://www.w3.org/Graphics/SVG/1.1/DTD/svg11.dtd">
<svg xmlns="http://www.w3.org/2000/svg" version="1.1" width="857px" height="408px" style="shape-rendering:geometricPrecision; text-rendering:geometricPrecision; image-rendering:optimizeQuality; fill-rule:evenodd; clip-rule:evenodd" xmlns:xlink="http://www.w3.org/1999/xlink">
<g><path style="opacity:1" fill="#fefefe" d="M -0.5,-0.5 C 285.167,-0.5 570.833,-0.5 856.5,-0.5C 856.5,135.5 856.5,271.5 856.5,407.5C 570.833,407.5 285.167,407.5 -0.5,407.5C -0.5,271.5 -0.5,135.5 -0.5,-0.5 Z"/></g>
<g><path style="opacity:1" fill="#2e3b5f" d="M 204.5,170.5 C 203.532,172.607 203.198,174.941 203.5,177.5C 196.833,177.5 190.167,177.5 183.5,177.5C 183.5,175.167 183.5,172.833 183.5,170.5C 185.927,155.38 190.094,140.713 196,126.5C 203.426,108.315 211.926,90.6482 221.5,73.5C 217.648,69.8137 213.648,66.3137 209.5,63C 195.5,62.3333 181.5,62.3333 167.5,63C 160.833,66.3333 154.167,69.6667 147.5,73C 167.167,73.3333 186.833,73.6667 206.5,74C 188.732,98.3725 175.899,125.206 168,154.5C 166.178,162.411 165.011,170.411 164.5,178.5C 157.5,178.5 150.5,178.5 143.5,178.5C 147.16,152.352 155.327,127.685 168,104.5C 168.667,103.167 168.667,101.833 168,100.5C 164.131,96.9662 160.631,93.1328 157.5,89C 144.833,88.3333 132.167,88.3333 119.5,89C 110.756,93.4538 102.256,98.2871 94,103.5C 78.9828,130.718 69.4828,159.718 65.5,190.5C 69.1667,190.5 72.8333,190.5 76.5,190.5C 78.4282,174.738 87.2615,165.738 103,163.5C 120.002,164.669 129.168,173.669 130.5,190.5C 165.5,190.5 200.5,190.5 235.5,190.5C 235.5,196.5 235.5,202.5 235.5,208.5C 172.167,208.5 108.833,208.5 45.5,208.5C 48.0941,158.542 64.4274,113.708 94.5,74C 105.833,73.6667 117.167,73.3333 128.5,73C 133.709,64.7479 139.042,56.5813 144.5,48.5C 182.162,47.3334 219.829,47.1667 257.5,48C 237.299,77.9032 221.466,110.07 210,144.5C 207.213,152.979 205.38,161.646 204.5,170.5 Z"/></g>
<g><path style="opacity:1" fill="#e1c280" d="M 479.5,153.5 C 479.5,153.167 479.5,152.833 479.5,152.5C 497.864,151.847 515.864,152.513 533.5,154.5C 520.196,153.575 506.863,153.242 493.5,153.5C 488.833,153.5 484.167,153.5 479.5,153.5 Z"/></g>
<g><path style="opacity:1" fill="#c89118" d="M 493.5,153.5 C 506.863,153.242 520.196,153.575 533.5,154.5C 534.167,154.5 534.833,154.5 535.5,154.5C 539.452,156.276 543.118,158.61 546.5,161.5C 546.833,162.167 547.167,162.833 547.5,163.5C 550.102,172.191 550.102,180.858 547.5,189.5C 546.255,192.987 544.255,195.987 541.5,198.5C 540.503,198.47 539.836,198.97 539.5,200C 540.056,201.011 540.722,201.844 541.5,202.5C 543.469,205.158 546.135,206.824 549.5,207.5C 551.417,213.237 552.751,219.237 553.5,225.5C 553.424,229.217 553.091,232.883 552.5,236.5C 551.385,240.947 549.052,244.613 545.5,247.5C 540.61,250.466 535.277,252.466 529.5,253.5C 513.167,253.5 496.833,253.5 480.5,253.5C 480.5,220.5 480.5,187.5 480.5,154.5C 485.032,154.818 489.366,154.485 493.5,153.5 Z"/></g>
<g><path style="opacity:1" fill="#c89118" d="M 626.5,153.5 C 635.5,153.5 644.5,153.5 653.5,153.5C 669.399,157.303 678.399,167.303 680.5,183.5C 683.241,202.233 680.908,220.233 673.5,237.5C 671.091,239.902 669.091,242.569 667.5,245.5C 665.264,246.546 663.264,247.879 661.5,249.5C 659.278,250.688 656.945,251.688 654.5,252.5C 638.548,253.47 622.548,253.803 606.5,253.5C 606.5,220.833 606.5,188.167 606.5,155.5C 613.396,155.706 620.063,155.039 626.5,153.5 Z"/></g>
<g><path style="opacity:1" fill="#c8921a" d="M 732.5,152.5 C 750.252,151.953 767.919,152.62 785.5,154.5C 788.579,156.536 791.912,158.202 795.5,159.5C 796.75,162.006 797.416,164.673 797.5,167.5C 798.833,167.5 800.167,167.5 801.5,167.5C 803.321,176.97 803.987,186.637 803.5,196.5C 802.953,199.702 801.953,202.702 800.5,205.5C 797.562,207.934 794.729,210.601 792,213.5C 791.26,214.749 791.427,215.749 792.5,216.5C 796.807,222.095 800.14,228.095 802.5,234.5C 802.5,234.833 802.5,235.167 802.5,235.5C 803.874,240.368 805.541,245.035 807.5,249.5C 807.5,250.833 807.5,252.167 807.5,253.5C 797.5,253.5 787.5,253.5 777.5,253.5C 777.678,249.878 777.011,246.544 775.5,243.5C 776.02,235.815 775.02,228.482 772.5,221.5C 768.366,220.515 764.032,220.182 759.5,220.5C 759.5,231.5 759.5,242.5 759.5,253.5C 750.5,253.5 741.5,253.5 732.5,253.5C 732.5,220.167 732.5,186.833 732.5,153.5C 732.5,153.167 732.5,152.833 732.5,152.5 Z"/></g>
<g><path style="opacity:1" fill="#e9d2a1" d="M 376.5,157.5 C 369.365,156.593 362.199,155.926 355,155.5C 350.09,155.858 345.257,156.524 340.5,157.5C 339.167,157.833 337.833,158.167 336.5,158.5C 338.45,156.974 340.783,155.974 343.5,155.5C 352.482,154.335 361.482,154.168 370.5,155C 372.611,155.845 374.611,156.678 376.5,157.5 Z"/></g>
<g><path style="opacity:1" fill="#f4ead4" d="M 591.5,153.5 C 591.5,153.167 591.5,152.833 591.5,152.5C 592.5,152.5 593.5,152.5 594.5,152.5C 594.5,186.5 594.5,220.5 594.5,254.5C 593.5,254.5 592.5,254.5 591.5,254.5C 591.5,254.167 591.5,253.833 591.5,253.5C 592.833,237.18 593.5,220.514 593.5,203.5C 593.5,186.486 592.833,169.82 591.5,153.5 Z"/></g>
<g><path style="opacity:1" fill="#eddbb5" d="M 719.5,152.5 C 720.833,169.153 721.5,186.153 721.5,203.5C 721.5,220.847 720.833,237.847 719.5,254.5C 719.5,254.167 719.5,253.833 719.5,253.5C 719.5,220.167 719.5,186.833 719.5,153.5C 719.5,153.167 719.5,152.833 719.5,152.5 Z"/></g>
<g><path style="opacity:1" fill="#f5ebd7" d="M 732.5,152.5 C 732.5,152.833 732.5,153.167 732.5,153.5C 731.502,186.662 731.168,219.996 731.5,253.5C 730.833,236.837 730.5,220.003 730.5,203C 730.5,185.82 731.167,168.986 732.5,152.5 Z"/></g>
<g><path style="opacity:1" fill="#e9d3a3" d="M 785.5,154.5 C 786.873,154.343 788.207,154.51 789.5,155C 792.014,155.881 794.014,157.381 795.5,159.5C 791.912,158.202 788.579,156.536 785.5,154.5 Z"/></g>
<g><path style="opacity:1" fill="#eedfbb" d="M 479.5,152.5 C 479.5,152.833 479.5,153.167 479.5,153.5C 478.171,187.069 478.171,220.736 479.5,254.5C 478.167,237.847 477.5,220.847 477.5,203.5C 477.5,186.153 478.167,169.153 479.5,152.5 Z"/></g>
<g><path style="opacity:1" fill="#e8d09d" d="M 591.5,152.5 C 591.5,152.833 591.5,153.167 591.5,153.5C 582.167,153.5 572.833,153.5 563.5,153.5C 563.168,187.004 563.502,220.338 564.5,253.5C 573.5,253.5 582.5,253.5 591.5,253.5C 591.5,253.833 591.5,254.167 591.5,254.5C 581.833,254.5 572.167,254.5 562.5,254.5C 562.5,220.5 562.5,186.5 562.5,152.5C 572.167,152.5 581.833,152.5 591.5,152.5 Z"/></g>
<g><path style="opacity:1" fill="#d9b361" d="M 591.5,153.5 C 592.833,169.82 593.5,186.486 593.5,203.5C 593.5,220.514 592.833,237.18 591.5,253.5C 591.5,220.5 591.5,187.5 591.5,154.5C 582.582,154.183 573.749,154.516 565,155.5C 564.5,188.165 564.333,220.832 564.5,253.5C 563.502,220.338 563.168,187.004 563.5,153.5C 572.833,153.5 582.167,153.5 591.5,153.5 Z"/></g>
<g><path style="opacity:1" fill="#c89117" d="M 591.5,253.5 C 582.5,253.5 573.5,253.5 564.5,253.5C 564.333,220.832 564.5,188.165 565,155.5C 573.749,154.516 582.582,154.183 591.5,154.5C 591.5,187.5 591.5,220.5 591.5,253.5 Z"/></g>
<g><path style="opacity:1" fill="#dab767" d="M 605.5,152.5 C 621.675,152.17 637.675,152.504 653.5,153.5C 644.5,153.5 635.5,153.5 626.5,153.5C 619.578,153.188 612.744,153.521 606,154.5C 605.5,187.498 605.333,220.498 605.5,253.5C 604.171,219.931 604.171,186.264 605.5,152.5 Z"/></g>
<g><path style="opacity:1" fill="#debe75" d="M 719.5,152.5 C 719.5,152.833 719.5,153.167 719.5,153.5C 710.167,153.5 700.833,153.5 691.5,153.5C 691.5,186.833 691.5,220.167 691.5,253.5C 700.833,253.5 710.167,253.5 719.5,253.5C 719.5,253.833 719.5,254.167 719.5,254.5C 709.833,254.5 700.167,254.5 690.5,254.5C 690.5,220.5 690.5,186.5 690.5,152.5C 700.167,152.5 709.833,152.5 719.5,152.5 Z"/></g>
<g><path style="opacity:1" fill="#c89117" d="M 719.5,153.5 C 719.5,186.833 719.5,220.167 719.5,253.5C 710.167,253.5 700.833,253.5 691.5,253.5C 691.5,220.167 691.5,186.833 691.5,153.5C 700.833,153.5 710.167,153.5 719.5,153.5 Z"/></g>
<g><path style="opacity:1" fill="#dfbf79" d="M 732.5,153.5 C 732.5,186.833 732.5,220.167 732.5,253.5C 741.5,253.5 750.5,253.5 759.5,253.5C 759.5,253.833 759.5,254.167 759.5,254.5C 749.985,254.827 740.652,254.494 731.5,253.5C 731.168,219.996 731.502,186.662 732.5,153.5 Z"/></g>
<g><path style="opacity:1" fill="#d7af57" d="M 479.5,153.5 C 484.167,153.5 488.833,153.5 493.5,153.5C 489.366,154.485 485.032,154.818 480.5,154.5C 480.5,187.5 480.5,220.5 480.5,253.5C 496.833,253.5 513.167,253.5 529.5,253.5C 529.5,253.833 529.5,254.167 529.5,254.5C 528.167,254.5 526.833,254.5 525.5,254.5C 516.5,254.5 507.5,254.5 498.5,254.5C 492.167,254.5 485.833,254.5 479.5,254.5C 478.171,220.736 478.171,187.069 479.5,153.5 Z"/></g>
<g><path style="opacity:1" fill="#ecd8ad" d="M 535.5,154.5 C 538.407,154.575 541.073,155.409 543.5,157C 545.141,158.129 546.141,159.629 546.5,161.5C 543.118,158.61 539.452,156.276 535.5,154.5 Z"/></g>
<g><path style="opacity:1" fill="#ecd8ae" d="M 605.5,152.5 C 604.171,186.264 604.171,219.931 605.5,253.5C 605.5,253.833 605.5,254.167 605.5,254.5C 604.167,237.847 603.5,220.847 603.5,203.5C 603.5,186.153 604.167,169.153 605.5,152.5 Z"/></g>
<g><path style="opacity:1" fill="#cfa036" d="M 626.5,153.5 C 620.063,155.039 613.396,155.706 606.5,155.5C 606.5,188.167 606.5,220.833 606.5,253.5C 606.167,253.5 605.833,253.5 605.5,253.5C 605.333,220.498 605.5,187.498 606,154.5C 612.744,153.521 619.578,153.188 626.5,153.5 Z"/></g>
<g><path style="opacity:1" fill="#c8921a" d="M 376.5,157.5 C 378.84,159.202 381.507,160.535 384.5,161.5C 392.681,168.175 397.014,176.842 397.5,187.5C 397.5,195.5 397.5,203.5 397.5,211.5C 380.83,211.333 364.163,211.5 347.5,212C 346.183,214.937 346.183,217.77 347.5,220.5C 347.132,224.044 348.132,227.044 350.5,229.5C 352.246,231.252 354.246,232.585 356.5,233.5C 356.918,234.222 357.584,234.722 358.5,235C 360.667,235.167 362.833,235.333 365,235.5C 368.477,235.672 371.644,235.006 374.5,233.5C 376.199,233.66 377.866,233.494 379.5,233C 381.391,231.558 383.391,230.391 385.5,229.5C 387.315,228.37 389.315,227.704 391.5,227.5C 393.643,229.881 395.31,232.547 396.5,235.5C 396.385,237.947 395.385,239.947 393.5,241.5C 393.672,242.492 393.338,243.158 392.5,243.5C 389.217,245.124 386.217,247.124 383.5,249.5C 378.882,250.615 374.548,252.282 370.5,254.5C 354.14,257.594 338.807,255.261 324.5,247.5C 317.665,242.507 313.332,235.84 311.5,227.5C 311.875,224.603 311.375,221.937 310,219.5C 309.333,211.167 309.333,202.833 310,194.5C 310.923,193.241 311.757,191.908 312.5,190.5C 313.331,185.426 314.331,180.426 315.5,175.5C 317.929,174.735 319.262,173.069 319.5,170.5C 321.986,169.756 323.986,168.256 325.5,166C 326.784,165.316 327.951,165.483 329,166.5C 329.635,165.034 330.469,163.7 331.5,162.5C 334.791,161.175 337.791,159.509 340.5,157.5C 345.257,156.524 350.09,155.858 355,155.5C 362.199,155.926 369.365,156.593 376.5,157.5 Z"/></g>
<g><path style="opacity:1" fill="#ecd7ac" d="M 376.5,157.5 C 379.868,157.655 382.535,158.988 384.5,161.5C 381.507,160.535 378.84,159.202 376.5,157.5 Z"/></g>
<g><path style="opacity:1" fill="#d6aa50" d="M 340.5,157.5 C 337.791,159.509 334.791,161.175 331.5,162.5C 330.469,163.7 329.635,165.034 329,166.5C 327.951,165.483 326.784,165.316 325.5,166C 323.986,168.256 321.986,169.756 319.5,170.5C 319.262,173.069 317.929,174.735 315.5,175.5C 320.026,166.742 327.026,161.075 336.5,158.5C 337.833,158.167 339.167,157.833 340.5,157.5 Z"/></g>
<g><path style="opacity:1" fill="#d3a747" d="M 795.5,159.5 C 800.868,163.664 804.201,168.997 805.5,175.5C 805.664,182.202 805.331,188.869 804.5,195.5C 804.5,196.167 804.167,196.5 803.5,196.5C 803.987,186.637 803.321,176.97 801.5,167.5C 800.167,167.5 798.833,167.5 797.5,167.5C 797.416,164.673 796.75,162.006 795.5,159.5 Z"/></g>
<g><path style="opacity:1" fill="#fefdfa" d="M 353.5,169.5 C 355.924,169.192 358.257,169.526 360.5,170.5C 362.005,171.842 362.672,173.508 362.5,175.5C 363.413,181.441 363.746,187.441 363.5,193.5C 358.5,193.5 353.5,193.5 348.5,193.5C 348.334,187.491 348.501,181.491 349,175.5C 350.153,173.182 351.653,171.182 353.5,169.5 Z"/></g>
<g><path style="opacity:1" fill="#e4c98f" d="M 645.5,171.5 C 641.742,169.746 637.742,169.079 633.5,169.5C 633.5,192.833 633.5,216.167 633.5,239.5C 632.502,215.672 632.169,191.672 632.5,167.5C 635.518,167.335 638.518,167.502 641.5,168C 643.544,168.498 644.878,169.665 645.5,171.5 Z"/></g>
<g><path style="opacity:1" fill="#fefcfa" d="M 645.5,171.5 C 647.982,172.663 649.316,174.663 649.5,177.5C 649.366,179.292 649.699,180.958 650.5,182.5C 650.847,198.229 650.181,213.896 648.5,229.5C 646.751,237.568 641.751,240.901 633.5,239.5C 633.5,216.167 633.5,192.833 633.5,169.5C 637.742,169.079 641.742,169.746 645.5,171.5 Z"/></g>
<g><path style="opacity:1" fill="#eeddb8" d="M 770.5,171.5 C 767.57,170.701 764.57,170.368 761.5,170.5C 761.5,181.5 761.5,192.5 761.5,203.5C 765.794,203.511 769.794,202.511 773.5,200.5C 773.489,202.017 772.823,203.184 771.5,204C 767.848,204.499 764.182,204.665 760.5,204.5C 760.5,192.833 760.5,181.167 760.5,169.5C 763.518,169.335 766.518,169.502 769.5,170C 770.056,170.383 770.389,170.883 770.5,171.5 Z"/></g>
<g><path style="opacity:1" fill="#fdfaf6" d="M 770.5,171.5 C 773.77,172.103 775.77,174.103 776.5,177.5C 777.833,183.5 777.833,189.5 776.5,195.5C 775.999,197.655 774.999,199.322 773.5,200.5C 769.794,202.511 765.794,203.511 761.5,203.5C 761.5,192.5 761.5,181.5 761.5,170.5C 764.57,170.368 767.57,170.701 770.5,171.5 Z"/></g>
<g><path style="opacity:1" fill="#fdfbf7" d="M 520.5,171.5 C 522.262,172.262 523.262,173.596 523.5,175.5C 523.666,179.846 523.499,184.179 523,188.5C 521.231,190.617 519.398,192.617 517.5,194.5C 514.167,194.5 510.833,194.5 507.5,194.5C 507.5,186.5 507.5,178.5 507.5,170.5C 511.898,170.294 516.232,170.627 520.5,171.5 Z"/></g>
<g><path style="opacity:1" fill="#e2c688" d="M 520.5,171.5 C 516.232,170.627 511.898,170.294 507.5,170.5C 507.5,178.5 507.5,186.5 507.5,194.5C 506.507,186.35 506.174,178.017 506.5,169.5C 510.846,169.334 515.179,169.501 519.5,170C 520.056,170.383 520.389,170.883 520.5,171.5 Z"/></g>
<g><path style="opacity:1" fill="#efdebb" d="M 550.5,169.5 C 552.047,171.807 552.713,174.473 552.5,177.5C 552.713,180.527 552.047,183.193 550.5,185.5C 551.833,180.167 551.833,174.833 550.5,169.5 Z"/></g>
<g><path style="opacity:1" fill="#d6ae55" d="M 547.5,163.5 C 549.346,165.03 550.346,167.03 550.5,169.5C 551.833,174.833 551.833,180.167 550.5,185.5C 549.833,186.833 549.167,188.167 548.5,189.5C 548.167,189.5 547.833,189.5 547.5,189.5C 550.102,180.858 550.102,172.191 547.5,163.5 Z"/></g>
<g><path style="opacity:1" fill="#5f6884" d="M 183.5,170.5 C 183.5,172.833 183.5,175.167 183.5,177.5C 190.167,177.5 196.833,177.5 203.5,177.5C 203.198,174.941 203.532,172.607 204.5,170.5C 204.5,173.167 204.5,175.833 204.5,178.5C 197.167,178.5 189.833,178.5 182.5,178.5C 182.194,175.615 182.527,172.948 183.5,170.5 Z"/></g>
<g><path style="opacity:1" fill="#e1c280" d="M 649.5,177.5 C 651.213,178.635 651.88,180.302 651.5,182.5C 651.167,182.5 650.833,182.5 650.5,182.5C 649.699,180.958 649.366,179.292 649.5,177.5 Z"/></g>
<g><path style="opacity:1" fill="#e8d2a0" d="M 805.5,175.5 C 806.653,181.319 806.819,187.319 806,193.5C 805.722,194.416 805.222,195.082 804.5,195.5C 805.331,188.869 805.664,182.202 805.5,175.5 Z"/></g>
<g><path style="opacity:1" fill="#dbb769" d="M 523.5,175.5 C 524.777,176.694 525.444,178.36 525.5,180.5C 526.323,187.361 523.656,192.027 517.5,194.5C 519.398,192.617 521.231,190.617 523,188.5C 523.499,184.179 523.666,179.846 523.5,175.5 Z"/></g>
<g><path style="opacity:1" fill="#ead6a9" d="M 353.5,169.5 C 351.653,171.182 350.153,173.182 349,175.5C 348.501,181.491 348.334,187.491 348.5,193.5C 353.5,193.5 358.5,193.5 363.5,193.5C 363.746,187.441 363.413,181.441 362.5,175.5C 363.117,175.611 363.617,175.944 364,176.5C 364.5,182.825 364.666,189.158 364.5,195.5C 358.833,195.5 353.167,195.5 347.5,195.5C 347.5,189.5 347.5,183.5 347.5,177.5C 347.76,173.436 349.76,170.77 353.5,169.5 Z"/></g>
<g><path style="opacity:1" fill="#efdeba" d="M 650.5,182.5 C 650.833,182.5 651.167,182.5 651.5,182.5C 652.834,196.835 652.667,211.168 651,225.5C 650.392,227.066 649.558,228.4 648.5,229.5C 650.181,213.896 650.847,198.229 650.5,182.5 Z"/></g>
<g><path style="opacity:1" fill="#d9b563" d="M 347.5,177.5 C 347.5,183.5 347.5,189.5 347.5,195.5C 353.167,195.5 358.833,195.5 364.5,195.5C 358.69,196.49 352.69,196.823 346.5,196.5C 346.177,189.978 346.51,183.645 347.5,177.5 Z"/></g>
<g><path style="opacity:1" fill="#ead4a5" d="M 547.5,189.5 C 547.833,189.5 548.167,189.5 548.5,189.5C 547.837,193.837 545.504,196.837 541.5,198.5C 544.255,195.987 546.255,192.987 547.5,189.5 Z"/></g>
<g><path style="opacity:1" fill="#d4aa4d" d="M 315.5,175.5 C 314.331,180.426 313.331,185.426 312.5,190.5C 311.757,191.908 310.923,193.241 310,194.5C 309.333,202.833 309.333,211.167 310,219.5C 311.375,221.937 311.875,224.603 311.5,227.5C 310.662,227.158 310.328,226.492 310.5,225.5C 310.843,223.517 310.176,222.183 308.5,221.5C 308.5,221.167 308.5,220.833 308.5,220.5C 308.334,210.161 308.5,199.828 309,189.5C 310.188,188.437 310.688,187.103 310.5,185.5C 311.438,181.764 313.105,178.43 315.5,175.5 Z"/></g>
<g><path style="opacity:1" fill="#f4e8d0" d="M 310.5,185.5 C 310.688,187.103 310.188,188.437 309,189.5C 308.5,199.828 308.334,210.161 308.5,220.5C 306.19,210.029 306.023,199.363 308,188.5C 308.852,187.429 309.685,186.429 310.5,185.5 Z"/></g>
<g><path style="opacity:1" fill="#e6cb93" d="M 800.5,205.5 C 797.833,209.167 795.167,212.833 792.5,216.5C 791.427,215.749 791.26,214.749 792,213.5C 794.729,210.601 797.562,207.934 800.5,205.5 Z"/></g>
<g><path style="opacity:1" fill="#dbb767" d="M 397.5,187.5 C 399.468,195.433 400.135,203.766 399.5,212.5C 382.325,212.17 365.325,212.503 348.5,213.5C 347.532,215.607 347.198,217.941 347.5,220.5C 346.183,217.77 346.183,214.937 347.5,212C 364.163,211.5 380.83,211.333 397.5,211.5C 397.5,203.5 397.5,195.5 397.5,187.5 Z"/></g>
<g><path style="opacity:1" fill="#e2c586" d="M 517.5,209.5 C 514.167,209.5 510.833,209.5 507.5,209.5C 507.5,218.5 507.5,227.5 507.5,236.5C 511.5,236.5 515.5,236.5 519.5,236.5C 515.366,237.485 511.032,237.818 506.5,237.5C 506.5,227.833 506.5,218.167 506.5,208.5C 510.371,208.185 514.038,208.518 517.5,209.5 Z"/></g>
<g><path style="opacity:1" fill="#f5ebd6" d="M 517.5,209.5 C 518.5,210.167 519.5,210.833 520.5,211.5C 516.5,211.5 512.5,211.5 508.5,211.5C 508.5,219.5 508.5,227.5 508.5,235.5C 512.167,235.5 515.833,235.5 519.5,235.5C 519.5,235.833 519.5,236.167 519.5,236.5C 515.5,236.5 511.5,236.5 507.5,236.5C 507.5,227.5 507.5,218.5 507.5,209.5C 510.833,209.5 514.167,209.5 517.5,209.5 Z"/></g>
<g><path style="opacity:1" fill="#fdfcf9" d="M 520.5,211.5 C 524.986,213.434 526.652,216.934 525.5,222C 526.357,227.92 524.357,232.42 519.5,235.5C 515.833,235.5 512.167,235.5 508.5,235.5C 508.5,227.5 508.5,219.5 508.5,211.5C 512.5,211.5 516.5,211.5 520.5,211.5 Z"/></g>
<g><path style="opacity:1" fill="#d0a03b" d="M 541.5,202.5 C 545.519,203.051 548.519,205.051 550.5,208.5C 551.476,209.815 552.476,211.148 553.5,212.5C 554.496,218.798 554.83,225.132 554.5,231.5C 554.88,233.698 554.213,235.365 552.5,236.5C 553.091,232.883 553.424,229.217 553.5,225.5C 552.751,219.237 551.417,213.237 549.5,207.5C 546.135,206.824 543.469,205.158 541.5,202.5 Z"/></g>
<g><path style="opacity:1" fill="#d8b15d" d="M 680.5,183.5 C 681.268,184.263 681.768,185.263 682,186.5C 683.457,201.762 682.124,216.762 678,231.5C 676.637,233.684 675.137,235.684 673.5,237.5C 680.908,220.233 683.241,202.233 680.5,183.5 Z"/></g>
<g><path style="opacity:1" fill="#eedebb" d="M 413.5,191.5 C 431.5,191.5 449.5,191.5 467.5,191.5C 467.815,199.42 467.482,207.253 466.5,215C 448.836,215.5 431.17,215.667 413.5,215.5C 413.5,207.5 413.5,199.5 413.5,191.5 Z"/></g>
<g><path style="opacity:1" fill="#dbb96c" d="M 416.5,192.5 C 415.191,199.266 415.191,205.932 416.5,212.5C 432.658,213.496 448.991,213.83 465.5,213.5C 448.675,214.497 431.675,214.83 414.5,214.5C 413.87,206.757 414.537,199.424 416.5,192.5 Z"/></g>
<g><path style="opacity:1" fill="#d1a33e" d="M 416.5,192.5 C 432.833,192.5 449.167,192.5 465.5,192.5C 465.5,199.5 465.5,206.5 465.5,213.5C 448.991,213.83 432.658,213.496 416.5,212.5C 415.191,205.932 415.191,199.266 416.5,192.5 Z"/></g>
<g><path style="opacity:1" fill="#c89116" d="M 416.5,212.5 C 416.5,206.5 416.5,200.5 416.5,194.5C 432.5,194.5 448.5,194.5 464.5,194.5C 464.5,200.5 464.5,206.5 464.5,212.5C 448.5,212.5 432.5,212.5 416.5,212.5 Z"/></g>
<g><path style="opacity:1" fill="#2e3a5e" d="M 233.5,219.5 C 233.5,225.5 233.5,231.5 233.5,237.5C 177.664,237.168 121.998,237.501 66.5,238.5C 70.1573,272.796 80.1573,305.129 96.5,335.5C 128.669,336.83 161.003,336.83 193.5,335.5C 193.376,334.893 193.043,334.56 192.5,334.5C 178.431,308.956 169.764,281.623 166.5,252.5C 166.5,251.167 166.5,249.833 166.5,248.5C 173.167,248.5 179.833,248.5 186.5,248.5C 186.216,250.415 186.549,252.081 187.5,253.5C 193.189,292.198 207.189,327.531 229.5,359.5C 184.003,360.499 138.336,360.832 92.5,360.5C 63.071,318.213 47.4044,271.213 45.5,219.5C 108.167,219.5 170.833,219.5 233.5,219.5 Z"/></g>
<g><path style="opacity:1" fill="#dcba6d" d="M 772.5,221.5 C 768.833,221.5 765.167,221.5 761.5,221.5C 760.833,232.167 760.167,242.833 759.5,253.5C 759.5,242.5 759.5,231.5 759.5,220.5C 764.032,220.182 768.366,220.515 772.5,221.5 Z"/></g>
<g><path style="opacity:1" fill="#eeddb8" d="M 761.5,221.5 C 762.144,232.884 761.477,243.884 759.5,254.5C 759.5,254.167 759.5,253.833 759.5,253.5C 760.167,242.833 760.833,232.167 761.5,221.5 Z"/></g>
<g><path style="opacity:1" fill="#dcb769" d="M 792.5,216.5 C 794.017,216.511 795.184,217.177 796,218.5C 799.845,223.214 802.012,228.547 802.5,234.5C 800.14,228.095 796.807,222.095 792.5,216.5 Z"/></g>
<g><path style="opacity:1" fill="#ebd6a9" d="M 308.5,221.5 C 310.176,222.183 310.843,223.517 310.5,225.5C 308.824,224.817 308.157,223.483 308.5,221.5 Z"/></g>
<g><path style="opacity:1" fill="#eedcb6" d="M 348.5,213.5 C 348.461,218.944 349.127,224.277 350.5,229.5C 348.132,227.044 347.132,224.044 347.5,220.5C 347.198,217.941 347.532,215.607 348.5,213.5 Z"/></g>
<g><path style="opacity:1" fill="#f0e0bf" d="M 550.5,208.5 C 551.5,208.5 552.5,208.5 553.5,208.5C 556.092,215.585 556.925,222.918 556,230.5C 555.617,231.056 555.117,231.389 554.5,231.5C 554.83,225.132 554.496,218.798 553.5,212.5C 552.476,211.148 551.476,209.815 550.5,208.5 Z"/></g>
<g><path style="opacity:1" fill="#e5cb93" d="M 391.5,227.5 C 389.315,227.704 387.315,228.37 385.5,229.5C 386.548,227.466 388.214,226.133 390.5,225.5C 391.298,225.957 391.631,226.624 391.5,227.5 Z"/></g>
<g><path style="opacity:1" fill="#e6ce99" d="M 356.5,233.5 C 362.5,234.833 368.5,234.833 374.5,233.5C 371.644,235.006 368.477,235.672 365,235.5C 362.833,235.333 360.667,235.167 358.5,235C 357.584,234.722 356.918,234.222 356.5,233.5 Z"/></g>
<g><path style="opacity:1" fill="#4b5675" d="M 233.5,219.5 C 234.49,225.645 234.823,231.978 234.5,238.5C 178.5,238.5 122.5,238.5 66.5,238.5C 121.998,237.501 177.664,237.168 233.5,237.5C 233.5,231.5 233.5,225.5 233.5,219.5 Z"/></g>
<g><path style="opacity:1" fill="#e4c88b" d="M 396.5,235.5 C 398.191,238.664 397.191,240.664 393.5,241.5C 395.385,239.947 396.385,237.947 396.5,235.5 Z"/></g>
<g><path style="opacity:1" fill="#f0e1c0" d="M 772.5,221.5 C 775.02,228.482 776.02,235.815 775.5,243.5C 773.077,236.527 772.077,229.194 772.5,221.5 Z"/></g>
<g><path style="opacity:1" fill="#bcbfcb" d="M 187.5,253.5 C 186.549,252.081 186.216,250.415 186.5,248.5C 179.833,248.5 173.167,248.5 166.5,248.5C 166.5,249.833 166.5,251.167 166.5,252.5C 165.549,251.081 165.216,249.415 165.5,247.5C 172.833,247.5 180.167,247.5 187.5,247.5C 187.5,249.5 187.5,251.5 187.5,253.5 Z"/></g>
<g><path style="opacity:1" fill="#e8cf9b" d="M 392.5,243.5 C 390.364,246.702 387.364,248.702 383.5,249.5C 386.217,247.124 389.217,245.124 392.5,243.5 Z"/></g>
<g><path style="opacity:1" fill="#e5ca90" d="M 667.5,245.5 C 666.366,248.034 664.366,249.367 661.5,249.5C 663.264,247.879 665.264,246.546 667.5,245.5 Z"/></g>
<g><path style="opacity:1" fill="#f3e7cd" d="M 802.5,235.5 C 803.75,235.577 804.583,236.244 805,237.5C 806.396,242.98 808.23,248.313 810.5,253.5C 810.043,254.298 809.376,254.631 808.5,254.5C 808.784,252.585 808.451,250.919 807.5,249.5C 805.541,245.035 803.874,240.368 802.5,235.5 Z"/></g>
<g><path style="opacity:1" fill="#ebd7ac" d="M 775.5,243.5 C 777.011,246.544 777.678,249.878 777.5,253.5C 776.778,253.082 776.278,252.416 776,251.5C 775.503,248.854 775.336,246.187 775.5,243.5 Z"/></g>
<g><path style="opacity:1" fill="#e8d09d" d="M 383.5,249.5 C 383.047,250.458 382.381,251.292 381.5,252C 379.616,252.216 377.949,252.883 376.5,254C 374.527,254.495 372.527,254.662 370.5,254.5C 374.548,252.282 378.882,250.615 383.5,249.5 Z"/></g>
<g><path style="opacity:1" fill="#e8d19f" d="M 545.5,247.5 C 541.07,251.759 535.737,254.093 529.5,254.5C 529.5,254.167 529.5,253.833 529.5,253.5C 535.277,252.466 540.61,250.466 545.5,247.5 Z"/></g>
<g><path style="opacity:1" fill="#dfbf79" d="M 654.5,252.5 C 654.389,253.117 654.056,253.617 653.5,254C 637.503,254.5 621.503,254.667 605.5,254.5C 605.5,254.167 605.5,253.833 605.5,253.5C 605.833,253.5 606.167,253.5 606.5,253.5C 622.548,253.803 638.548,253.47 654.5,252.5 Z"/></g>
<g><path style="opacity:1" fill="#dfbf79" d="M 807.5,249.5 C 808.451,250.919 808.784,252.585 808.5,254.5C 797.986,254.828 787.653,254.494 777.5,253.5C 787.5,253.5 797.5,253.5 807.5,253.5C 807.5,252.167 807.5,250.833 807.5,249.5 Z"/></g>
<g><path style="opacity:1" fill="#dfbe78" d="M 324.5,247.5 C 338.807,255.261 354.14,257.594 370.5,254.5C 370.082,255.222 369.416,255.722 368.5,256C 359.167,256.667 349.833,256.667 340.5,256C 335.869,254.066 331.202,252.066 326.5,250C 325.619,249.292 324.953,248.458 324.5,247.5 Z"/></g>
<g><path style="opacity:1" fill="#f2e6cb" d="M 498.5,254.5 C 507.5,254.5 516.5,254.5 525.5,254.5C 522.402,255.821 518.902,256.488 515,256.5C 509.257,256.642 503.757,255.975 498.5,254.5 Z"/></g>
<g><path style="opacity:1" fill="#9ca2b3" d="M 192.5,334.5 C 193.043,334.56 193.376,334.893 193.5,335.5C 161.003,336.83 128.669,336.83 96.5,335.5C 128.671,335.832 160.671,335.498 192.5,334.5 Z"/></g>
<g><path style="opacity:1" fill="#f7f7f9" d="M 140.5,339.5 C 150.158,337.993 154.325,341.993 153,351.5C 149.96,357.368 145.46,358.868 139.5,356C 133.976,350.129 134.309,344.629 140.5,339.5 Z"/></g>
<g><path style="opacity:1" fill="#e3e5ea" d="M 229.5,359.5 C 230.043,359.56 230.376,359.893 230.5,360.5C 184.335,361.831 138.335,361.831 92.5,360.5C 138.336,360.832 184.003,360.499 229.5,359.5 Z"/></g>
</svg>
