 <svg  version="1.0" xmlns="http://www.w3.org/2000/svg"  width="300.000000pt" 
 height="113.000000pt" viewBox="0 0 300.000000 113.000000"  preserveAspectRatio="xMidYMid meet">  
 <g transform="translate(0.000000,113.000000) scale(0.050000,-0.050000)"  fill="#ffffff" stroke="none"> 
 <path fill="#0090e7"  d="M494 2114 c-908 -889 -430 -2395 652 -2055 75 24 134 50 130 58 -41 97 -427 599 
 -441 574 -31 -57 27 -198 146 -350 l117 -151 -69 -17 c-204 -50 -370 90 -369 311 2 223 277
  634 576 859 l66 50 -314 418 c-173 231 -320 426 -328 435 -8 9 -82 -51 -166 -132z m377 -376 
  l153 -202 -20 -139 c-19 -128 -30 -149 -119 -244 -336 -355 -414 -704 -214 -966 l49 -65 -92 
  32 c-502 171 -675 958 -334 1522 149 244 172 264 306 264 l119 0 152 -202z"/> 
  <path fill="#0090e7" d="M211 1176 c-67 -96 -13 -278 117 -391 89 -79 159 -84 204 -15 112 172 -205 572 -321 406z"/> 
 <path fill="#f1592a" d="M2780 960 l0 -420 120 0 120 0 0 310 0 310 58 0 c71 0 96 -51 41 -85 -65 -41 -57 
 -235 10 -235 27 0 54 -9 62 -21 18 -29 -28 -79 -73 -79 -32 0 -38 -16 -38 -100 l0 -100 92 
 0 c206 0 315 263 166 402 l-61 57 41 53 c148 188 8 328 -327 328 l-211 0 0 -420z"/> 
 <path fill="#f1592a" d="M3520 960 l0 -420 120 0 120 0 0 420 0 420 -120 0 -120 0 0 -420z"/> 
 <path fill="#f1592a" d="M3940 962 l0 -422 126 0 126 0 -1 300 -1 300 102 0 c139 0 208 -53 208 -160 0 
 -135 -64 -200 -199 -200 l-61 0 0 -121 c0 -143 12 -152 167 -120 230 48 343 191 343 432
  0 293 -135 394 -545 405 l-265 8 0 -422z"/> 
 <path fill="#f1592a" d="M4880 960 l0 -420 130 0 130 0 0 420 0 420 -130 0 -130 0 0 -420z"/> 
 <path fill="#f1592a" d="M5320 960 l0 -420 120 0 120 0 0 310 0 310 58 0 c76 0 112 -43 83 -99 -12 -22 
 -36 -41 -52 -41 -52 0 -38 -210 24 -355 l53 -125 127 0 c147 0 145 -5 67 170 -72 161 
 -72 151 -10 242 161 237 -6 428 -375 428 l-215 0 0 -420z"/> 
 <path fill="#f1592a" d="M1687 1291 c-477 -243 -129 -950 362 -734 l94 42 -84 100 c-69 82 -91 96 -120 
 80 -98 -52 -179 22 -179 163 0 150 114 224 205 133 l45 -45 -90 -10 c-84 -9 -90 -14 -90 
 -70 l0 -60 225 -6 225 -5 0 76 c0 283 -329 470 -593 336z"/> 
 <path fill="#f1592a" d="M2404 913 c4 -51 16 -82 31 -81 14 1 75 3 135 5 l110 3 0 78 0 78 -141 0 -141 0 6 -83z"/> </g> </svg> 
