<svg width="245" height="153" viewBox="0 0 245 153" fill="none" xmlns="http://www.w3.org/2000/svg">
<path d="M53.3333 81.6667V71.2083H78.25V81.6667H53.3333ZM101.408 92.8333C103.38 92.8333 104.825 92.2778 105.741 91.1667C106.658 90.0556 107.116 88.7361 107.116 87.2083V84.2917C107.116 82.4861 106.533 81.2083 105.366 80.4583C104.2 79.6806 102.88 79.2917 101.408 79.2917H98.1579V92.8333H101.408ZM106.533 64.6667C106.533 63 106.075 61.8472 105.158 61.2083C104.241 60.5417 102.922 60.2083 101.2 60.2083H98.1579V72.25H101.533C103.144 72.25 104.38 71.625 105.241 70.375C106.102 69.0972 106.533 67.5417 106.533 65.7083V64.6667ZM104.241 101.375C102.075 101.375 99.269 101.319 95.8245 101.208C92.3801 101.097 89.9079 101.028 88.4079 101H84.4079V52.1667H91.6162C93.3662 52.1667 95.3662 52.1111 97.6162 52C99.8662 51.8611 101.491 51.7917 102.491 51.7917C105.741 51.7917 108.477 52.0556 110.7 52.5833C112.95 53.1111 114.713 53.9028 115.991 54.9583C117.269 56.0139 118.172 57.2361 118.7 58.625C119.255 60.0139 119.533 61.6667 119.533 63.5833C119.533 66.5278 118.852 69.0556 117.491 71.1667C116.13 73.2778 114.158 74.5972 111.575 75.125C118.13 75.7083 121.408 79.5556 121.408 86.6667C121.408 88.8056 121.088 90.75 120.45 92.5C119.811 94.2222 118.825 95.7639 117.491 97.125C116.186 98.4583 114.408 99.5 112.158 100.25C109.908 101 107.269 101.375 104.241 101.375ZM125.426 101V52.1667H139.635V101H125.426ZM161.779 94.1667C163.89 94.1667 165.502 92.8611 166.613 90.25C167.752 87.6389 168.321 83.3333 168.321 77.3333V73.125C168.321 68.7361 167.793 65.3472 166.738 62.9583C165.682 60.5694 164.182 59.375 162.238 59.375H159.113V94.1667H161.779ZM163.071 101.292C162.071 101.292 160.515 101.236 158.404 101.125C156.321 101.042 154.168 101 151.946 101H145.321V52.1667H151.946C153.807 52.1389 155.835 52.0694 158.029 51.9583C160.224 51.8472 161.946 51.7917 163.196 51.7917C170.279 51.7917 175.349 53.7778 178.404 57.75C181.488 61.7222 183.029 67.5139 183.029 75.125C183.029 77.7083 182.849 80.1667 182.488 82.5C182.154 84.8333 181.515 87.1806 180.571 89.5417C179.627 91.875 178.432 93.8889 176.988 95.5833C175.543 97.2778 173.627 98.6528 171.238 99.7083C168.849 100.764 166.127 101.292 163.071 101.292ZM187.072 101V52.1667H201.28V101H187.072ZM220.675 84.75V101H206.841V52.1667H212.341C213.675 52.1667 215.661 52.1111 218.3 52C220.939 51.8611 223.119 51.7917 224.841 51.7917C230.841 51.7917 235.314 53.1111 238.258 55.75C241.23 58.3889 242.716 62.4306 242.716 67.875C242.716 71.0972 242.008 73.9583 240.591 76.4583C239.203 78.9583 237.355 80.9444 235.05 82.4167C236.3 82.7222 237.369 83.4306 238.258 84.5417C239.175 85.6528 239.883 86.9722 240.383 88.5C240.883 90 241.314 91.5278 241.675 93.0833C242.064 94.6111 242.494 96.125 242.966 97.625C243.466 99.125 244.008 100.25 244.591 101H229.216C228.911 100.611 228.675 99.5278 228.508 97.75C228.341 95.9444 228.105 93.7917 227.8 91.2917C227.522 88.7639 227.119 86.6528 226.591 84.9583C226.536 84.9583 226.466 84.9583 226.383 84.9583C225.855 84.9583 225.286 84.9583 224.675 84.9583C224.091 84.9306 223.578 84.9028 223.133 84.875C222.689 84.8472 222.216 84.8194 221.716 84.7917C221.244 84.7639 220.897 84.75 220.675 84.75ZM220.675 77H222.008C222.703 77 223.286 76.9722 223.758 76.9167C224.23 76.8611 224.744 76.7639 225.3 76.625C225.883 76.4583 226.355 76.2083 226.716 75.875C227.105 75.5417 227.466 75.1111 227.8 74.5833C228.133 74.0556 228.383 73.375 228.55 72.5417C228.716 71.7083 228.8 70.7361 228.8 69.625V66.3333C228.8 63.9167 228.161 62.2361 226.883 61.2917C225.633 60.3194 223.828 59.8333 221.466 59.8333H220.675V77Z" fill="#C89116"/>
<path d="M28.985 72.565C28.985 67.9083 28.7467 64.6083 28.27 62.665C27.7933 60.7217 26.9133 59.75 25.63 59.75C24.53 59.75 23.6317 59.9517 22.935 60.355C22.2383 60.7217 21.725 61.3267 21.395 62.17C21.065 62.9767 20.845 63.82 20.735 64.7C20.6617 65.5433 20.625 66.625 20.625 67.945V72.565H28.985ZM24.585 102.155C20.4783 102.155 16.9033 101.532 13.86 100.285C10.8533 99.0383 8.47 97.2967 6.71 95.06C4.98667 92.8233 3.72167 90.3117 2.915 87.525C2.10833 84.7017 1.705 81.5667 1.705 78.12C1.705 69.9067 3.795 63.6917 7.975 59.475C12.155 55.2583 18.0033 53.15 25.52 53.15C32.7433 53.15 37.9133 54.855 41.03 58.265C44.1467 61.6383 45.705 67.0833 45.705 74.6V80.705H20.57V81.75C20.57 83.9133 20.79 85.6917 21.23 87.085C21.7067 88.4783 22.385 89.505 23.265 90.165C24.145 90.825 25.0433 91.265 25.96 91.485C26.8767 91.705 27.995 91.815 29.315 91.815C30.5983 91.815 31.9733 91.65 33.44 91.32C34.9433 90.99 36.4467 90.4767 37.95 89.78C39.49 89.0833 40.7733 88.2583 41.8 87.305L45.045 92.86C43.6883 95.06 41.69 96.9117 39.05 98.415C36.4467 99.8817 33.935 100.872 31.515 101.385C29.095 101.898 26.785 102.155 24.585 102.155Z" fill="#C89116"/>
</svg>
